<svg width="80" height="82" viewBox="0 0 80 82" version="1.1" xmlns="http://www.w3.org/2000/svg" xmlns:xlink="http://www.w3.org/1999/xlink" xmlns:figma="http://www.figma.com/figma/ns">
<title>bot</title>
<desc>Created using Figma</desc>
<g id="Canvas" transform="translate(5 43)" figma:type="canvas">
<g id="bot" figma:type="frame">
<g id="path" figma:type="vector">
<use xlink:href="#path0_fill" transform="translate(5 -6)"/>
</g>
<g id="path" figma:type="vector">
<use xlink:href="#path1_fill" transform="translate(-5 -43)"/>
</g>
</g>
</g>
<defs>
<path id="path0_fill" fill-rule="evenodd" d="M 0 15C 0 6.71573 6.70811 0 15.0051 0L 44.9949 0C 53.282 0 60 6.71391 60 15C 60 23.2843 53.2919 30 44.9949 30L 15.0051 30C 6.718 30 0 23.2861 0 15ZM 13.3832 16.2316C 13.4663 16.1253 13.7052 15.8853 14.0606 15.6356C 14.6133 15.2473 15.2173 15.0168 15.8619 14.9993L 15.7534 14.9993C 16.4066 15.0169 17.0107 15.247 17.5592 15.6337C 17.9101 15.8811 18.144 16.1181 18.2236 16.2213L 19.4449 17.8051L 22.6125 15.3625L 21.3912 13.7787C 21.0849 13.3814 20.5779 12.8678 19.864 12.3644C 18.7121 11.5524 17.3708 11.0415 15.8615 11.0007L 15.7529 11.0007C 14.2524 11.0416 12.9149 11.5521 11.7612 12.3626C 11.048 12.8636 10.5396 13.3743 10.2316 13.7684L 9 15.3442L 12.1516 17.8074L 13.3832 16.2316ZM 41.3832 16.2316C 41.4663 16.1253 41.7052 15.8853 42.0606 15.6356C 42.6133 15.2473 43.2173 15.0168 43.8619 14.9993L 43.7534 14.9993C 44.4066 15.0169 45.0107 15.247 45.5592 15.6337C 45.9101 15.8811 46.144 16.1181 46.2236 16.2213L 47.4449 17.8051L 50.6125 15.3625L 49.3912 13.7787C 49.0849 13.3814 48.5779 12.8678 47.864 12.3644C 46.7121 11.5524 45.3708 11.0415 43.8615 11.0007L 43.7529 11.0007C 42.2524 11.0416 40.9149 11.5521 39.7612 12.3626C 39.048 12.8636 38.5396 13.3743 38.2316 13.7684L 37 15.3442L 40.1516 17.8074L 41.3832 16.2316Z"/>
<path id="path1_fill" fill-rule="evenodd" d="M 40 12C 61.4336 12 71.3823 20.6138 76 28.6101L 76 3.94175L 76 2L 80 2L 80 3.94175L 80 50.0583L 80 51.0291L 80 62C 80 62 80 82 40 82C 0 82 0 62 0 62L 0 51.0291L 0 50.0583L 0 3.94175L 0 2L 4 2L 4 3.94175L 4 28.6101C 8.61774 20.6138 18.5664 12 40 12ZM 4 42L 4 62C 4 61.9724 4.00697 62.077 4.03792 62.2937C 4.10254 62.746 4.22442 63.2742 4.41973 63.8601C 5.00997 65.6308 6.09344 67.4366 7.82843 69.1716C 13.2453 74.5885 23.4799 78 40 78C 56.5201 78 66.7546 74.5885 72.1716 69.1716C 73.9066 67.4366 74.99 65.6308 75.5803 63.8601C 75.7756 63.2742 75.8975 62.746 75.9621 62.2937C 75.993 62.077 76 61.9724 76 62L 76 42C 76 41.8884 75.9861 41.575 75.9399 41.0902C 75.8574 40.2239 75.7066 39.2438 75.4703 38.1802C 74.7904 35.1207 73.5663 32.0606 71.6718 29.2188C 66.1879 20.993 56.2019 16 40 16C 23.7981 16 13.8121 20.993 8.3282 29.2188C 6.43369 32.0606 5.20965 35.1207 4.52975 38.1802C 4.29339 39.2438 4.14261 40.2239 4.06011 41.0902C 4.01611 41.5522 4 42 4 42ZM 4 2C 4 0.89543 3.10457 0 2 0C 0.89543 0 0 0.89543 0 2L 4 2ZM 80 2C 80 0.89543 79.1046 0 78 0C 76.8954 0 76 0.89543 76 2L 80 2Z"/>
</defs>
</svg>
