<?xml version="1.0" encoding="utf-8"?>
<!-- Generator: Adobe Illustrator 21.1.0, SVG Export Plug-In . SVG Version: 6.00 Build 0)  -->
<svg version="1.1" id="Layer_1" xmlns="http://www.w3.org/2000/svg" xmlns:xlink="http://www.w3.org/1999/xlink" x="0px" y="0px"
	 viewBox="0 0 1224 792" style="enable-background:new 0 0 1224 792;" xml:space="preserve">
<style type="text/css">
	.st0{fill:#A561B6;}
	.st1{fill:#282829;}
	.st2{fill:none;stroke:#282829;stroke-width:6;stroke-miterlimit:10;}
	.st3{fill:#375D9D;}
	.st4{fill:none;stroke:#A561B6;stroke-width:7;stroke-miterlimit:10;}
</style>
<circle class="st0" cx="508.4" cy="421.1" r="259.9"/>
<path class="st1" d="M639.8,338.1H320c-5.4,0-9.8-4.4-9.8-9.8v-12.5c0-5.4,4.4-9.8,9.8-9.8h319.8c5.4,0,9.8,4.4,9.8,9.8v12.5
	C649.6,333.7,645.2,338.1,639.8,338.1z"/>
<line class="st2" x1="354.8" y1="487" x2="701.3" y2="487"/>
<circle class="st3" cx="372.4" cy="322.6" r="10.9"/>
<path class="st1" d="M325.2,605.4l36.3-56.3l-77.8,2.6C283.7,551.6,300.9,581.5,325.2,605.4z"/>
<path class="st1" d="M691.9,605.4l-36.3-56.3l77.8,2.6C733.4,551.6,716.1,581.5,691.9,605.4z"/>
<line class="st4" x1="655.6" y1="250.4" x2="747.1" y2="123"/>
<line class="st4" x1="248.6" y1="131.7" x2="351" y2="250.5"/>
<circle class="st0" cx="241" cy="123" r="20.2"/>
<circle class="st0" cx="751.6" cy="116.8" r="20.2"/>
</svg>
